<?xml version="1.0" standalone="no"?>
<!DOCTYPE svg PUBLIC "-//W3C//DTD SVG 20010904//EN"
 "http://www.w3.org/TR/2001/REC-SVG-20010904/DTD/svg10.dtd">
<svg version="1.0" xmlns="http://www.w3.org/2000/svg"
 width="3849.000000pt" height="3849.000000pt" viewBox="0 0 3849.000000 3849.000000"
 preserveAspectRatio="xMidYMid meet">
<metadata>
Created by potrace 1.14, written by Peter Selinger 2001-2017
</metadata>
<g transform="translate(0.000000,3849.000000) scale(0.100000,-0.100000)"
fill="#000000" stroke="none">
<path d="M16635 34819 c-3098 -97 -6086 -1135 -8575 -2978 -626 -463 -1132
-901 -1716 -1485 -427 -427 -704 -733 -1050 -1156 -1901 -2329 -3072 -5182
-3354 -8175 -246 -2617 178 -5251 1227 -7614 676 -1525 1556 -2873 2690 -4123
202 -223 768 -789 991 -991 900 -816 1852 -1500 2897 -2081 283 -157 884 -457
1185 -590 2361 -1047 4896 -1472 7495 -1256 869 73 1817 239 2655 466 2369
641 4501 1807 6315 3452 214 195 824 805 1017 1019 272 300 410 466 396 474
-7 3 -959 269 -2115 590 -1157 321 -2103 587 -2103 591 0 4 1753 1962 3896
4350 l3896 4343 -6 280 c-38 1627 -335 3240 -877 4759 -312 873 -723 1756
-1192 2561 -1255 2154 -3056 3999 -5187 5312 -1919 1183 -4079 1924 -6310
2168 -742 80 -1437 107 -2175 84z m716 -5524 c452 -113 823 -206 824 -207 1
-2 -148 -606 -332 -1342 -183 -737 -330 -1343 -326 -1347 5 -3 141 -37 303
-74 162 -37 454 -105 648 -151 194 -46 359 -84 367 -84 9 0 107 376 345 1332
182 733 332 1333 333 1334 1 2 378 -91 837 -206 740 -185 835 -211 832 -227
-3 -18 -666 -2668 -678 -2708 -5 -19 14 -28 198 -94 1532 -556 2474 -1230
2909 -2083 254 -498 335 -1059 243 -1688 -119 -819 -445 -1474 -944 -1892
-276 -232 -626 -413 -1010 -524 -85 -25 -159 -46 -164 -47 -5 -2 63 -43 150
-92 797 -451 1293 -993 1514 -1655 85 -255 120 -470 127 -785 9 -400 -37 -738
-162 -1182 -180 -640 -450 -1190 -799 -1628 -107 -134 -346 -371 -478 -473
-537 -417 -1132 -634 -1968 -719 -215 -22 -915 -25 -1160 -5 -483 39 -974 103
-1448 190 l-154 29 -9 -21 c-5 -12 -157 -619 -339 -1349 -181 -731 -334 -1346
-340 -1366 l-10 -38 -832 206 c-457 114 -833 212 -835 217 -3 8 646 2627 673
2715 4 13 -54 31 -343 104 -192 48 -491 126 -666 172 -175 47 -320 83 -321 81
-2 -1 -153 -605 -336 -1342 -183 -736 -336 -1353 -341 -1371 l-9 -33 -832 209
c-458 115 -834 212 -837 215 -3 3 149 622 337 1377 188 755 342 1379 342 1388
0 22 -472 145 -2248 584 -607 150 -1105 275 -1108 278 -4 4 606 1421 801 1863
l23 52 128 -34 c353 -94 973 -249 1083 -270 209 -40 321 -31 458 36 135 67
262 216 311 365 11 33 262 1033 558 2223 529 2123 539 2163 562 2157 57 -13
72 -13 29 1 -37 12 -47 19 -43 32 3 9 179 713 391 1563 371 1488 385 1550 385
1641 0 225 -74 426 -213 574 -205 220 -371 279 -1557 557 -173 41 -224 56
-222 67 8 48 441 1762 446 1767 4 5 1829 -450 2491 -621 341 -88 878 -208 884
-197 4 6 159 622 345 1371 233 935 343 1360 352 1360 7 0 383 -92 835 -205z"/>
<path d="M16637 22753 c-228 -917 -414 -1670 -412 -1672 18 -17 971 -254 1255
-311 540 -108 779 -135 1230 -135 372 0 447 7 686 61 568 127 946 450 1114
953 74 222 107 508 81 704 -45 338 -196 618 -472 881 -186 177 -376 306 -669
455 -497 253 -1017 419 -2008 642 -196 44 -364 82 -373 85 -14 4 -76 -235
-432 -1663z"/>
<path d="M15795 19378 c-13 -38 -913 -3664 -910 -3667 15 -14 1078 -281 1375
-345 1390 -297 2355 -284 2997 40 365 184 611 470 738 858 63 194 80 305 80
536 0 281 -28 408 -144 645 -282 576 -983 1050 -2108 1425 -422 140 -884 263
-1583 420 -173 39 -340 77 -371 85 -69 18 -69 18 -74 3z"/>
<path d="M30520 16235 c-2351 -2621 -4287 -4780 -4302 -4798 l-27 -33 2410
-669 c1326 -369 2415 -673 2420 -676 6 -3 -722 -1606 -1676 -3690 -928 -2026
-1694 -3700 -1702 -3719 -11 -26 56 35 255 235 546 546 9142 9229 9142 9235 0
3 -1266 347 -2812 764 -1547 417 -2817 762 -2821 766 -4 4 751 1644 1679 3646
1687 3639 1717 3704 1712 3704 -2 0 -1927 -2145 -4278 -4765z"/>
</g>
</svg>
